<?xml version="1.0" encoding="utf-8"?>
<!-- Generator: Adobe Illustrator 23.0.3, SVG Export Plug-In . SVG Version: 6.00 Build 0)  -->
<svg version="1.1" id="Layer_1" xmlns="http://www.w3.org/2000/svg" xmlns:xlink="http://www.w3.org/1999/xlink" x="0px" y="0px"
	 viewBox="0 0 455.9 449" style="enable-background:new 0 0 455.9 449;" xml:space="preserve">
<title>junction_logos_2018</title>
<g>
	<g id="Layer_1-2">
		<path d="M259.5,312.8l-28.9-28.9c-19.1-19.1-13.5-55.7,12.5-81.6l41.4-41.4l17.3,17.3l-41.4,41.4c-15.8,15.8-21.7,37.8-12.5,47
			l28.9,28.9L259.5,312.8z M284.5,172.9l-35.4,35.4c-22.6,22.6-28.2,53.9-12.5,69.6l22.9,22.9l5.3-5.3l-22.9-22.9
			c-12.8-12.8-7.2-39.3,12.5-59l35.4-35.4L284.5,172.9z"/>
		<path d="M180.6,299.4L163.3,282l41.4-41.4c11.9-11.9,26.5-20,41-22.9c3.6-0.7,7.3-1.1,11-1.1c11.8,0,22,4,29.5,11.5l30.1,28.9
			L299,274.4l-30-28.9c-3.9-3.9-10.6-5.2-18.6-3.7c-9.8,1.9-19.9,7.6-28.4,16.1L180.6,299.4z M175.3,282l5.3,5.3L216,252
			c9.7-9.7,21.3-16.2,32.8-18.5c2.6-0.5,5.3-0.8,7.9-0.8c7.5,0,13.8,2.3,18.3,6.8l24.1,22.9l5.3-5.3l-24.1-22.9
			c-5.9-5.9-14-9-23.5-9c-3.2,0-6.3,0.3-9.4,0.9c-12.9,2.5-25.9,9.8-36.7,20.5L175.3,282z"/>
		<path d="M169.3,288.1L152,270.8l41.4-41.4c15.8-15.8,21.9-37.6,12.9-46.5l-28.4-28.4l17.3-17.3l28.4,28.4
			c18.8,18.8,13,55.2-12.9,81.1L169.3,288.1z M163.9,270.8l5.3,5.3l35.4-35.4c22.6-22.6,28.4-53.7,12.9-69.2L195.1,149l-5.3,5.3
			l22.4,22.4c12.6,12.6,6.8,38.8-12.9,58.5L163.9,270.8z"/>
		<path d="M196.8,232.4c-11.7,0-21.7-3.8-28.9-11.1l-28.4-28.4l17.3-17.3l28.4,28.5c3.4,3.4,8.2,4.1,11.7,4.1
			c10.9,0,24.3-6.5,34.8-17.1l41.4-41.4l17.3,17.3L249,208.4C234,223.4,214.5,232.4,196.8,232.4z M151.4,192.9l22.5,22.4
			c5.6,5.6,13.6,8.6,23,8.6c15.4,0,32.7-8.1,46.2-21.6l35.3-35.4l-5.3-5.3L237.7,197c-12,12-27.7,19.5-40.8,19.5
			c-7.3,0-13.4-2.3-17.7-6.6l-22.5-22.4L151.4,192.9z"/>
		<path d="M341.3,142.5l8.6-8.6c-8.8-11.7-19.2-22.1-30.9-30.9l-8.6,8.6C322.2,120.2,332.7,130.7,341.3,142.5z"/>
		<path d="M114.6,307.4L106,316c8.8,11.7,19.2,22.1,30.9,30.9l8.6-8.6C133.6,329.7,123.2,319.3,114.6,307.4z"/>
		<path d="M227.9,93.8c27.2,0,53.8,8.5,75.9,24.3l6.5-6.5c-49.1-35.8-115.8-35.8-164.9,0l6.5,6.5C174.2,102.3,200.7,93.8,227.9,93.8
			z"/>
		<path d="M87.7,225c0,29.6,9.4,58.5,26.9,82.5l6.5-6.5c-32.4-45.4-32.4-106.4,0-151.9l-6.5-6.5C97.1,166.5,87.6,195.3,87.7,225z"/>
		<path d="M227.9,356.1c-27.2,0-53.8-8.5-75.9-24.3l-6.5,6.5c49.1,35.9,115.8,35.9,164.9,0l-6.5-6.5
			C281.7,347.7,255.2,356.2,227.9,356.1z"/>
		<path d="M368.2,225c0-29.6-9.4-58.5-26.9-82.4l-6.5,6.4c32.4,45.4,32.4,106.4,0,151.8l6.5,6.5C358.8,283.5,368.2,254.6,368.2,225z
			"/>
		<path d="M390.8,225c0-35.6-11.7-70.3-33.4-98.6l-7.5,7.5c40.4,54,40.4,128.1,0,182.1l7.5,7.5C379.1,295.3,390.8,260.6,390.8,225z"
			/>
		<path d="M227.9,377.3c-32.8,0-64.8-10.6-91.1-30.3l-7.5,7.5c58.2,44.5,139,44.5,197.2,0L319,347
			C292.8,366.7,260.8,377.3,227.9,377.3z"/>
		<path d="M129.4,95.4l7.5,7.5c54-40.4,128.1-40.4,182.1,0l7.5-7.5C268.3,51,187.6,51,129.4,95.4z"/>
		<path d="M65.1,225c0,35.6,11.7,70.3,33.4,98.6l7.5-7.5c-40.4-54-40.4-128.2,0-182.2l-7.5-7.5C76.8,154.7,65,189.3,65.1,225z"/>
		<path d="M106,133.9l8.6,8.6c8.6-11.8,19.1-22.3,30.9-30.9l-8.6-8.6C125.2,111.7,114.8,122.1,106,133.9z"/>
		<path d="M350,316l-8.6-8.6c-8.6,11.9-19.1,22.3-30.9,30.9l8.5,8.7C330.8,338.2,341.2,327.8,350,316z"/>
	</g>
</g>
</svg>
